<svg xmlns="http://www.w3.org/2000/svg" width="19.425" height="19.425" viewBox="0 0 19.425 19.425"><g transform="translate(-1516.818 -261.575)"><path d="M13.087,5.336A7.748,7.748,0,1,1,7.605,7.605a7.719,7.719,0,0,1,5.482-2.269m0-1.961A9.712,9.712,0,1,0,22.8,13.087a9.711,9.711,0,0,0-9.712-9.712Z" transform="translate(1513.443 258.2)" fill="#898989"/><path d="M20.4,19.041,19.041,20.4l-3.5-3.5-3.5,3.5-1.359-1.359,3.5-3.5-3.5-3.5,1.359-1.359,3.5,3.5,3.5-3.5L20.4,12.046l-3.5,3.5Z" transform="translate(1510.987 255.744)" fill="#898989"/></g></svg>