<svg xmlns="http://www.w3.org/2000/svg" width="15.5" height="17.714" viewBox="0 0 15.5 17.714"><path d="M.415,6.643h14.67a.416.416,0,0,1,.415.415v9a1.661,1.661,0,0,1-1.661,1.661H1.661A1.661,1.661,0,0,1,0,16.054v-9A.416.416,0,0,1,.415,6.643ZM15.5,5.121V3.875a1.661,1.661,0,0,0-1.661-1.661H12.179V.415A.416.416,0,0,0,11.763,0H10.379a.416.416,0,0,0-.415.415v1.8H5.536V.415A.416.416,0,0,0,5.121,0H3.737a.416.416,0,0,0-.415.415v1.8H1.661A1.661,1.661,0,0,0,0,3.875V5.121a.416.416,0,0,0,.415.415h14.67A.416.416,0,0,0,15.5,5.121Z" fill="#bcbcbc"/></svg>