<svg xmlns="http://www.w3.org/2000/svg" viewBox="0 0 24 24" width="150" height="150">
  <path fill="#000000" d="M17.5 0c-.827 0-1.5.673-1.5 1.5v4.701l-.582 2.33c-.355.596-1.182.917-1.978.685l-6.555-1.64c-.6-.15-1.044-.631-1.144-1.25l-.68-4.512c-.103-.686.22-1.361.764-1.775l1.805-1.502c.618-.515 1.515-.563 2.216-.125l.557.307c.586.32 1.31.207 1.772-.276l1.18-1.18c.88-.88 2.32-.88 3.2 0 .88.88.88 2.32 0 3.2l-1.18 1.18c-.483.483-.596 1.197-.276 1.772l.307.557c.438.798.39 1.695-.125 2.215l-1.502 1.805c-.414.544-1.089.867-1.775.764l-4.512-.68c-.619-.1-1.1-.544-1.25-1.144l-1.64-6.555c-.232-.796.088-1.623.685-1.978l2.33-.582H1.5C.673 2.5 0 3.173 0 4v15.5c0 .827.673 1.5 1.5 1.5h8c.827 0 1.5-.673 1.5-1.5v-5.3l2.53 2.53c.39.39.902.585 1.415.585s1.025-.195 1.415-.585c.78-.78.78-2.047 0-2.828l-2.531-2.53h4.795c.827 0 1.5-.673 1.5-1.5V1.5c0-.827-.673-1.5-1.5-1.5zm-8 15c-3.038 0-5.5-2.462-5.5-5.5s2.462-5.5 5.5-5.5 5.5 2.462 5.5 5.5-2.462 5.5-5.5 5.5z"/>
</svg>
