<svg xmlns="http://www.w3.org/2000/svg" width="25.424" height="25.418" viewBox="0 0 25.424 25.418">
  <path id="Icon_awesome-instagram" data-name="Icon awesome-instagram" d="M12.71,8.43a6.517,6.517,0,1,0,6.517,6.517A6.507,6.507,0,0,0,12.71,8.43Zm0,10.754a4.237,4.237,0,1,1,4.237-4.237,4.245,4.245,0,0,1-4.237,4.237Zm8.3-11.02a1.52,1.52,0,1,1-1.52-1.52A1.517,1.517,0,0,1,21.013,8.163ZM25.33,9.706A7.522,7.522,0,0,0,23.276,4.38,7.572,7.572,0,0,0,17.95,2.327c-2.1-.119-8.389-.119-10.487,0A7.561,7.561,0,0,0,2.137,4.375,7.547,7.547,0,0,0,.084,9.7c-.119,2.1-.119,8.389,0,10.487a7.522,7.522,0,0,0,2.053,5.326,7.582,7.582,0,0,0,5.326,2.053c2.1.119,8.389.119,10.487,0a7.522,7.522,0,0,0,5.326-2.053,7.572,7.572,0,0,0,2.053-5.326c.119-2.1.119-8.383,0-10.482ZM22.618,22.44A4.29,4.29,0,0,1,20.2,24.856c-1.673.664-5.644.51-7.493.51s-5.825.147-7.493-.51A4.29,4.29,0,0,1,2.8,22.44c-.664-1.673-.51-5.644-.51-7.493s-.147-5.825.51-7.493A4.29,4.29,0,0,1,5.217,5.038c1.673-.664,5.644-.51,7.493-.51s5.825-.147,7.493.51a4.29,4.29,0,0,1,2.416,2.416c.664,1.673.51,5.644.51,7.493S23.282,20.772,22.618,22.44Z" transform="translate(0.005 -2.238)" fill="#bcbcbc"/>
</svg>
