<svg xmlns="http://www.w3.org/2000/svg" width="21.392" height="21.391" viewBox="0 0 21.392 21.391">
  <path id="Icon_awesome-linkedin-in" data-name="Icon awesome-linkedin-in" d="M4.788,21.392H.353V7.11H4.788ZM2.568,5.162A2.581,2.581,0,1,1,5.137,2.569,2.59,2.59,0,0,1,2.568,5.162Zm18.819,16.23H16.962V14.44c0-1.657-.033-3.782-2.306-3.782-2.306,0-2.659,1.8-2.659,3.662v7.072H7.566V7.11H11.82V9.058h.062a4.66,4.66,0,0,1,4.2-2.306c4.488,0,5.314,2.956,5.314,6.795v7.845Z" transform="translate(0 -0.001)" fill="#bcbcbc"/>
</svg>
