<svg xmlns="http://www.w3.org/2000/svg" width="25.807" height="21" viewBox="0 0 25.807 21">
  <path id="Icon_ionic-logo-twitter" data-name="Icon ionic-logo-twitter" d="M27.22,6.988a10.7,10.7,0,0,1-3.041.837,5.313,5.313,0,0,0,2.33-2.931,10.521,10.521,0,0,1-3.363,1.285,5.293,5.293,0,0,0-9.16,3.62,5.184,5.184,0,0,0,.137,1.209A15,15,0,0,1,3.207,5.468a5.305,5.305,0,0,0,1.646,7.077,5.171,5.171,0,0,1-2.406-.662v.066a5.3,5.3,0,0,0,4.249,5.2A5.33,5.33,0,0,1,5.3,17.33a5,5,0,0,1-1-.1,5.3,5.3,0,0,0,4.949,3.68,10.615,10.615,0,0,1-6.579,2.27A10.732,10.732,0,0,1,1.413,23.1a14.8,14.8,0,0,0,8.1,2.4A14.975,14.975,0,0,0,24.6,10.417c0-.23-.005-.459-.016-.684A10.778,10.778,0,0,0,27.22,6.988Z" transform="translate(-1.413 -4.5)" fill="#bcbcbc"/>
</svg>
