<svg xmlns="http://www.w3.org/2000/svg" width="21.12" height="14.85" viewBox="0 0 21.12 14.85">
  <path id="Icon_awesome-youtube" data-name="Icon awesome-youtube" d="M21.729,6.824a2.654,2.654,0,0,0-1.867-1.879C18.215,4.5,11.61,4.5,11.61,4.5s-6.6,0-8.252.444A2.654,2.654,0,0,0,1.491,6.824,27.839,27.839,0,0,0,1.05,11.94a27.839,27.839,0,0,0,.441,5.117,2.614,2.614,0,0,0,1.867,1.849c1.647.444,8.252.444,8.252.444s6.6,0,8.252-.444a2.614,2.614,0,0,0,1.867-1.849,27.839,27.839,0,0,0,.441-5.117,27.839,27.839,0,0,0-.441-5.117ZM9.45,15.08V8.8l5.52,3.14L9.45,15.08Z" transform="translate(-1.05 -4.5)" fill="#bcbcbc"/>
</svg>
