<svg xmlns="http://www.w3.org/2000/svg" width="278" height="65" viewBox="0 0 400 200">
  <!-- Engrenagem 1 -->
  <g transform="translate(50,100)">
    <!-- Engrenagem interna -->
    <circle cx="0" cy="0" r="40" fill="#ddd"/>
    <!-- Dentadura da engrenagem -->
    <g fill="none" stroke="#999" stroke-width="6">
      <path d="M32.28,-18.86l-5.94,6.16c-5.65,0.52-11.28,1.37-16.78,2.61c-2.03,0.47-3.59,1.88-4.19,3.86c-0.65,2.45,0.2,5.01,2.11,6.71l5.36,4.56"/>
      <path d="M46.74,13.56l5.36,-4.56c1.91,-1.7,2.76,-4.26,2.11,-6.71c-0.6,-1.98-2.16,-3.39-4.19,-3.86c-5.5,-1.24-11.13,-2.1-16.78,-2.61l-5.94,-6.16"/>
      <path d="M-24.48,0l5.94,-6.16c5.65,-0.52,11.28,-1.37,16.78,-2.61c2.03,-0.47,3.59,-1.88,4.19,-3.86c0.65,-2.45,-0.2,-5.01,-2.11,-6.71l-5.36,-4.56"/>
      <path d="M-9.92,32.42l-5.36,-4.56c-1.91,-1.7,-2.76,-4.26,-2.11,-6.71c0.6,-1.98,2.16,-3.39,4.19,-3.86c5.5,-1.24,11.13,-2.1,16.78,-2.61l5.94,-6.16"/>
      <path d="M25.86,30.5l5.94,6.16c5.65,0.52,11.28,1.37,16.78,2.61c2.03,0.47,3.59,1.88,4.19,3.86c0.65,2.45,-0.2,5.01,-2.11,6.71l-5.36,4.56"/>
      <path d="M11.4,-1.92l-5.36,4.56c-1.91,1.7,-2.76,4.26,-2.11,6.71c0.6,1.98,2.16,3.39,4.19,3.86c5.5,1.24,11.13,2.1,16.78,2.61l5.94,6.16"/>
    </g>
    <!-- Engrenagem externa -->
    <circle cx="0" cy="0" r="60" fill="none" stroke="#999" stroke-width="6"/>
  </g>

  <!-- Texto EquipoRent -->
  <text x="125" y="130" font-family="Arial" font-size="90" font-weight="bold" fill="yellow">EquipoRent</text>
</svg>
