<svg xmlns="http://www.w3.org/2000/svg" width="600" height="400" viewBox="0 0 600 400">
  <!-- Furadeira -->
  <g id="drill">
    <!-- Body -->
    <rect x="50" y="100" width="100" height="50" rx="10" ry="10" fill="#3f3d56"/>
    <!-- Handle -->
    <rect x="90" y="150" width="20" height="50" fill="#3f3d56"/>
    <!-- Drill Bit -->
    <rect x="150" y="115" width="50" height="20" fill="#3f3d56"/>
  </g>

  <!-- Betoneira -->
  <g id="cement-mixer">
    <!-- Drum -->
    <ellipse cx="250" cy="200" rx="60" ry="40" fill="#ff6347"/>
    <!-- Stand -->
    <rect x="200" y="230" width="100" height="20" fill="#ff6347"/>
    <!-- Wheels -->
    <circle cx="210" cy="260" r="10" fill="#3f3d56"/>
    <circle cx="290" cy="260" r="10" fill="#3f3d56"/>
  </g>

  <!-- Andaime -->
  <g id="scaffolding">
    <!-- Frame -->
    <rect x="350" y="50" width="10" height="300" fill="#8a4b08"/>
    <rect x="450" y="50" width="10" height="300" fill="#8a4b08"/>
    <!-- Horizontal Bars -->
    <rect x="350" y="100" width="110" height="10" fill="#8a4b08"/>
    <rect x="350" y="200" width="110" height="10" fill="#8a4b08"/>
    <rect x="350" y="300" width="110" height="10" fill="#8a4b08"/>
  </g>

  <!-- Carrinho de mão -->
  <g id="wheelbarrow">
    <!-- Body -->
    <polygon points="100,350 150,320 200,350 170,350 170,380 130,380 130,350" fill="#14a6b8"/>
    <!-- Wheel -->
    <circle cx="150" cy="380" r="10" fill="#3f3d56"/>
    <!-- Handles -->
    <line x1="110" y1="340" x2="140" y2="320" stroke="#14a6b8" stroke-width="5"/>
    <line x1="190" y1="340" x2="160" y2="320" stroke="#14a6b8" stroke-width="5"/>
  </g>

  <!-- Roupa Macacão -->
  <g id="overalls">
    <!-- Upper Part -->
    <rect x="500" y="100" width="50" height="50" fill="#8a4b08"/>
    <!-- Straps -->
    <rect x="490" y="100" width="10" height="40" fill="#8a4b08"/>
    <rect x="550" y="100" width="10" height="40" fill="#8a4b08"/>
    <!-- Lower Part -->
    <rect x="500" y="150" width="50" height="80" fill="#8a4b08"/>
  </g>

</svg>
