<svg xmlns="http://www.w3.org/2000/svg" width="124" height="124.001" viewBox="0 0 124 124.001"><g transform="translate(-6705 1740)"><rect width="124" height="124" transform="translate(6705 -1740)" fill="#2e5871"/><g transform="translate(-99.053 388.604)"><g transform="translate(6797.849 -2142)"><g transform="translate(0 0)"><g transform="translate(29.786 38.507)"><path d="M103.2,116.208c-4.428-8.383-32.9-13.644-32.9-13.644s-28.472,5.261-32.9,13.644c-3.273,11.633-6.011,26.415-6.011,26.415h77.822S107.36,126.773,103.2,116.208Z" transform="translate(-31.386 -43.732)" fill="#f1c9a5"/><path d="M72.387,102.564s28.472,5.261,32.9,13.644c4.163,10.566,6.011,26.415,6.011,26.415H72.387Z" transform="translate(-33.475 -43.732)" fill="#e4b692"/><rect width="15.502" height="25.943" transform="translate(31.161 41.789)" fill="#f1c9a5"/><rect width="7.751" height="25.943" transform="translate(38.912 41.789)" fill="#e4b692"/><path d="M64.22,96.628c1.394,4,7.02,6.3,11.152,6.3a13.934,13.934,0,0,0,4.35-.709V84.606H64.22Z" transform="translate(-33.059 -42.817)" fill="#ddac8c" opacity="0.1"/><path d="M103.2,116.346c-2.587-4.9-13.365-8.723-21.89-11.062a11.028,11.028,0,0,1-22.02,0c-8.525,2.339-19.3,6.167-21.891,11.062-3.273,11.633-6.011,26.415-6.011,26.415h77.822S107.36,126.912,103.2,116.346Z" transform="translate(-31.386 -43.871)" fill="#fff"/><path d="M91.247,65.993c0-16.2-8.923-25.419-19.93-25.419s-19.93,9.214-19.93,25.419c0,6.789,2.077,21.82,5.622,24.883,2.434,2.163,10.381,5.868,14.267,5.868h0l.041,0,.039,0h0c3.887,0,11.834-3.7,14.267-5.868C89.312,86.983,91.247,72.224,91.247,65.993Z" transform="translate(-32.405 -40.574)" fill="#f1c9a5"/><path d="M72.388,96.742l.039,0h0c3.887,0,11.834-3.7,14.267-5.868,3.686-3.894,5.621-18.652,5.621-24.883,0-16.2-8.923-25.419-19.93-25.419V96.742Z" transform="translate(-33.475 -40.574)" fill="#e4b692"/><path d="M89.893,78.335c-3.613-.378-6.052-4.271-5.44-8.69s4.026-7.706,7.641-7.33S98.14,66.582,97.531,71,93.506,78.709,89.893,78.335Z" transform="translate(-34.085 -41.68)" fill="#e4b692"/><path d="M46.68,71.006c-.61-4.423,1.826-8.314,5.435-8.69s7.038,2.907,7.645,7.331-1.832,8.312-5.442,8.69S47.285,75.429,46.68,71.006Z" transform="translate(-32.16 -41.68)" fill="#f1c9a5"/><path d="M37.4,116.419c-3.273,11.633-6.011,26.415-6.011,26.415h28.26c-4.8-21.169-4.982-36.086-4.982-36.114C47.244,109.07,39.533,112.38,37.4,116.419Z" transform="translate(-31.386 -43.944)" fill="#fb6020"/><path d="M105.859,116.419c4.432,10.945,6.011,26.415,6.011,26.415H83.609c4.8-21.169,4.982-36.086,4.982-36.114C96.013,109.07,103.724,112.38,105.859,116.419Z" transform="translate(-34.047 -43.944)" fill="#fb6020"/></g><path d="M52.672,78.725s2.911,9.8,6.063,11.469h2.546l3.151-4.465,6.91-1.926V98.688H62.37L53.4,90.633Z" transform="translate(-2.684 -4.011)" fill="#915f2c"/><path d="M91.057,78.725s-2.911,9.8-6.063,11.469H82.448L79.3,85.729,72.387,83.8V98.688h8.971l8.97-8.056Z" transform="translate(-3.689 -4.011)" fill="#915f2c"/><path d="M75.407,89.128a3.047,3.047,0,0,0-3.243-2.113,3.358,3.358,0,0,0-3.243,2.113Z" transform="translate(-3.512 -4.433)" fill="#fff"/><path d="M51.373,61.1a8.741,8.741,0,0,1,4.348,2.533c-.3-3.471-.968-15,3.246-17.893s6.185.124,12.305.124v-8.43H61.324c-2.593,0-10.82,1.239-10.82,9.007A131.565,131.565,0,0,0,51.373,61.1Z" transform="translate(-2.574 -1.907)" fill="#915f2c"/><path d="M92.285,61.1a8.741,8.741,0,0,0-4.348,2.533c.3-3.471.968-15-3.246-17.893s-6.185.124-12.305.124v-8.43h9.948c2.593,0,10.82,1.239,10.82,9.007A131.565,131.565,0,0,1,92.285,61.1Z" transform="translate(-3.689 -1.907)" fill="#915f2c"/></g></g></g></g></svg>