<svg xmlns="http://www.w3.org/2000/svg" width="124" height="124.002" viewBox="0 0 124 124.002"><g transform="translate(-6563 1884)"><rect width="124" height="124" transform="translate(6563 -1884)" fill="#2b5971"/><g transform="translate(15.579 175.158)"><g transform="translate(6542.228 -2069.544)"><g transform="translate(0 0)"><path d="M97.831,60.975c0-15.511-12.573-31.875-28.084-31.875S41.662,45.463,41.662,60.975a28.084,28.084,0,1,0,56.169,0Z" transform="translate(-2.99 -2.088)" fill="#583a2f"/><g transform="translate(29.134 37.663)"><path d="M54.4,121.74H90.058S93.7,82.892,93.233,67.507,78.07,42.683,64.921,42.683,38.157,102.022,54.4,121.74Z" transform="translate(-32.506 -40.725)" fill="#583a2f"/><path d="M101.625,114.62c-2.866-5.425-16.02-9.511-24.6-11.656V84.606H61.865v18.358c-8.578,2.145-21.732,6.231-24.6,11.656-3.2,11.379-5.88,25.836-5.88,25.836H107.5S105.7,124.955,101.625,114.62Z" transform="translate(-31.387 -43.733)" fill="#f1c9a5"/><path d="M104.566,114.62c-2.866-5.425-16.02-9.511-24.6-11.656V84.606H72.387v55.851h38.059S108.636,124.955,104.566,114.62Z" transform="translate(-34.328 -43.733)" fill="#e4b692"/><path d="M64.22,96.364c1.364,3.914,6.866,6.158,10.908,6.158a13.628,13.628,0,0,0,4.254-.693V84.606H64.22Z" transform="translate(-33.742 -43.733)" fill="#ddac8c" opacity="0.1"/><path d="M90.374,65.436c0-15.849-8.727-24.862-19.493-24.862S51.387,49.586,51.387,65.436s8.727,28.7,19.493,28.7S90.374,81.286,90.374,65.436Z" transform="translate(-32.822 -40.574)" fill="#f1c9a5"/><path d="M89.772,78.083c-3.534-.34-5.92-3.843-5.322-7.819s3.938-6.934,7.473-6.6,5.914,3.84,5.318,7.82S93.306,78.42,89.772,78.083Z" transform="translate(-35.187 -42.229)" fill="#e4b692"/><path d="M45.815,71.489c-.6-3.979,1.786-7.481,5.316-7.82s6.884,2.616,7.477,6.6-1.792,7.479-5.323,7.819S46.408,75.468,45.815,71.489Z" transform="translate(-32.415 -42.229)" fill="#f1c9a5"/><path d="M91.88,65.436c0-15.849-8.727-24.862-19.493-24.862V94.135C83.152,94.135,91.88,81.286,91.88,65.436Z" transform="translate(-34.328 -40.574)" fill="#e4b692"/><path d="M77.027,104.064V99.923c-2.451.211-4.985.322-7.581.322s-5.13-.111-7.581-.322v4.141c-8.578,2.145-21.732,6.231-24.6,11.656-3.2,11.379-5.88,25.836-5.88,25.836H107.5s-1.808-15.5-5.88-25.836C98.759,110.3,85.6,106.208,77.027,104.064Z" transform="translate(-31.387 -44.832)" fill="#c51c39"/></g><g transform="translate(57.898 97.168)"><path d="M62.374,104.678v.023" transform="translate(-62.374 -104.678)" fill="none" stroke="#fff" stroke-linecap="round" stroke-linejoin="round" stroke-width="1.431"/><path d="M62.561,106.541a9.3,9.3,0,0,0,18.373-.895" transform="translate(-62.387 -104.747)" fill="none" stroke="#fff" stroke-linecap="round" stroke-linejoin="round" stroke-width="1.431" stroke-dasharray="0.048 1.918"/><path d="M82.4,104.7v-.023" transform="translate(-63.811 -104.678)" fill="none" stroke="#fff" stroke-linecap="round" stroke-linejoin="round" stroke-width="1.431"/></g><path d="M41.2,63.438s-3.423,56.788-5.976,75.5H54.717l-3.962-52.7" transform="translate(-2.528 -4.551)" fill="#583a2f"/><path d="M101.126,63.438s3.423,56.788,5.976,75.5H87.609L90.19,89.27" transform="translate(-6.286 -4.551)" fill="#583a2f"/><path d="M71.878,37.149c-11.651,0-22.215,12.974-22.215,25.269,0,.047,0,.093,0,.139h11l1.042-8.2v8.2H72.849v-8.2l1.953,8.2H81.87V55.745l1.695,6.813h8.284c0-.047,0-.093,0-.139C91.851,50.123,83.528,37.149,71.878,37.149Z" transform="translate(-3.564 -2.665)" fill="#583a2f"/></g></g></g></g></svg>